<svg width="24" height="24" viewBox="0 0 24 24" fill="none" xmlns="http://www.w3.org/2000/svg">
<g clip-path="url(#clip0_41_11)">
<path d="M22.5 13.4993V10.5H19.3493C19.1618 9.57975 18.8025 8.724 18.312 7.9605L20.5605 5.71125L18.438 3.59025L16.2233 5.80425C15.4148 5.2515 14.493 4.8525 13.5 4.65075V1.5H10.5V4.65075C9.54225 4.84575 8.65275 5.2245 7.866 5.745L5.7105 3.59025L3.58875 5.7105L5.74425 7.8675C5.22375 8.65425 4.845 9.543 4.65075 10.5H1.5V13.5H4.6515C4.85325 14.493 5.25225 15.4148 5.805 16.2233L3.5895 18.438L5.712 20.5605L7.9605 18.3113C8.72475 18.8018 9.5805 19.1618 10.5008 19.3493V22.5H13.5V19.3493C14.457 19.1542 15.3472 18.7763 16.134 18.255L18.4387 20.5605L20.5613 18.438L18.2557 16.1332C18.7762 15.3457 19.155 14.457 19.3493 13.4993H22.5ZM12 16.4993C9.51525 16.4948 7.5045 14.4832 7.49925 12C7.50525 9.51525 9.51525 7.5045 12 7.5C14.484 7.5045 16.4948 9.5145 16.4993 12C16.4948 14.484 14.484 16.4948 12 16.4993Z" fill="white"/>
</g>
<defs>
<clipPath id="clip0_41_11">
<rect width="24" height="24" fill="white"/>
</clipPath>
</defs>
</svg>
