<svg width="24" height="24" viewBox="0 0 24 24" fill="none" xmlns="http://www.w3.org/2000/svg">
<path d="M9.75 15C11.4068 15 12.75 13.6568 12.75 12C12.75 10.3432 11.4068 9 9.75 9" stroke="white" stroke-width="2" stroke-miterlimit="10" stroke-linejoin="round"/>
<path d="M5.25 9H2.25V15H5.25L9.75 19.5V4.5L5.25 9Z" stroke="white" stroke-width="2" stroke-miterlimit="10" stroke-linejoin="round"/>
<path d="M18.2356 20.4855C20.4068 18.3135 21.7501 15.3135 21.7501 12C21.7501 8.6865 20.4068 5.6865 18.2356 3.5145" stroke="white" stroke-width="2" stroke-miterlimit="10" stroke-linejoin="round"/>
<path d="M16.1138 18.3637C17.7428 16.7355 18.75 14.4855 18.75 12C18.75 9.51448 17.7428 7.26448 16.1138 5.63623" stroke="white" stroke-width="2" stroke-miterlimit="10" stroke-linejoin="round"/>
<path d="M13.9927 16.2427C15.0787 15.1567 15.7499 13.6567 15.7499 12C15.7499 10.3432 15.0787 8.84323 13.9927 7.75723" stroke="white" stroke-width="2" stroke-miterlimit="10" stroke-linejoin="round"/>
</svg>
