<svg width="24" height="24" viewBox="0 0 24 24" fill="none" xmlns="http://www.w3.org/2000/svg">
<path fill-rule="evenodd" clip-rule="evenodd" d="M21.75 7.5C21.75 7.086 21.414 6.75 21 6.75H18C17.586 6.75 17.25 7.086 17.25 7.5V21C17.25 21.414 17.586 21.75 18 21.75H21C21.414 21.75 21.75 21.414 21.75 21V7.5ZM6.75 12C6.75 11.586 6.414 11.25 6 11.25H3C2.586 11.25 2.25 11.586 2.25 12V21C2.25 21.414 2.586 21.75 3 21.75H6C6.414 21.75 6.75 21.414 6.75 21V12ZM14.25 3C14.25 2.586 13.914 2.25 13.5 2.25H10.5C10.086 2.25 9.75 2.586 9.75 3V21C9.75 21.414 10.086 21.75 10.5 21.75H13.5C13.914 21.75 14.25 21.414 14.25 21V3Z" fill="white"/>
</svg>
