<svg width="16" height="16" viewBox="0 0 16 16" fill="none" xmlns="http://www.w3.org/2000/svg">
<path d="M14.5786 7.66929L11.9119 3.00263C11.8537 2.90059 11.7694 2.81577 11.6678 2.75677C11.5662 2.69776 11.4508 2.66666 11.3333 2.66663H1.99995C1.8832 2.66666 1.76851 2.69736 1.66736 2.75564C1.5662 2.81392 1.48212 2.89774 1.42353 2.99872C1.36494 3.0997 1.33389 3.2143 1.3335 3.33104C1.33311 3.44778 1.36338 3.56259 1.42128 3.66396L3.89928 7.99996L1.42128 12.336C1.36338 12.4373 1.33311 12.5521 1.3335 12.6689C1.33389 12.7856 1.36494 12.9002 1.42353 13.0012C1.48212 13.1022 1.5662 13.186 1.66736 13.2443C1.76851 13.3026 1.8832 13.3333 1.99995 13.3333H11.3333C11.4508 13.3333 11.5662 13.3022 11.6678 13.2432C11.7694 13.1841 11.8537 13.0993 11.9119 12.9973L14.5786 8.33063C14.6363 8.22996 14.6666 8.11597 14.6666 7.99996C14.6666 7.88395 14.6363 7.76996 14.5786 7.66929Z" fill="#D7D5F5"/>
</svg>
