<svg width="24" height="24" viewBox="0 0 24 24" fill="none" xmlns="http://www.w3.org/2000/svg">
<path d="M6.54419 1.66406C6.49194 1.61162 6.42984 1.57001 6.36147 1.54162C6.29309 1.51323 6.21979 1.49862 6.14576 1.49862C6.07172 1.49862 5.99842 1.51323 5.93005 1.54162C5.86167 1.57001 5.79958 1.61162 5.74732 1.66406L2.76232 4.63172L1.69826 3.59484C1.646 3.5424 1.5839 3.5008 1.51553 3.47241C1.44716 3.44401 1.37385 3.4294 1.29982 3.4294C1.22579 3.4294 1.15248 3.44401 1.08411 3.47241C1.01574 3.5008 0.953639 3.5424 0.901381 3.59484L0.165444 4.33172C0.113004 4.38398 0.0713953 4.44607 0.0430048 4.51445C0.0146143 4.58282 0 4.65612 0 4.73016C0 4.80419 0.0146143 4.87749 0.0430048 4.94587C0.0713953 5.01424 0.113004 5.07634 0.165444 5.12859L2.39622 7.35047C2.50757 7.45631 2.65533 7.51534 2.80896 7.51534C2.96259 7.51534 3.11034 7.45631 3.22169 7.35047L3.95247 6.61828L7.33685 3.23438C7.4423 3.12884 7.50188 2.98599 7.50267 2.8368C7.50346 2.68762 7.44539 2.54414 7.34107 2.4375L6.54419 1.66406ZM6.54419 9.12609C6.49194 9.07365 6.42984 9.03205 6.36147 9.00366C6.29309 8.97526 6.21979 8.96065 6.14576 8.96065C6.07172 8.96065 5.99842 8.97526 5.93005 9.00366C5.86167 9.03205 5.79958 9.07365 5.74732 9.12609L2.76232 12.113L1.69826 11.077C1.646 11.0246 1.5839 10.983 1.51553 10.9546C1.44716 10.9262 1.37385 10.9116 1.29982 10.9116C1.22579 10.9116 1.15248 10.9262 1.08411 10.9546C1.01574 10.983 0.953639 11.0246 0.901381 11.077L0.165444 11.8125C0.113004 11.8648 0.0713953 11.9269 0.0430048 11.9952C0.0146143 12.0636 0 12.1369 0 12.2109C0 12.285 0.0146143 12.3583 0.0430048 12.4266C0.0713953 12.495 0.113004 12.5571 0.165444 12.6094L2.3906 14.8359C2.50187 14.9418 2.64955 15.0008 2.8031 15.0008C2.95665 15.0008 3.10433 14.9418 3.2156 14.8359L3.95154 14.1005L7.33591 10.7152C7.44096 10.6104 7.50034 10.4683 7.50113 10.3199C7.50192 10.1716 7.44405 10.0289 7.34013 9.92297L6.54419 9.12609ZM2.99997 17.25C1.75826 17.25 0.722319 18.2578 0.722319 19.5C0.722319 20.7422 1.75919 21.75 2.99997 21.75C3.59671 21.75 4.16901 21.5129 4.59096 21.091C5.01292 20.669 5.24997 20.0967 5.24997 19.5C5.24997 18.9033 5.01292 18.331 4.59096 17.909C4.16901 17.4871 3.59671 17.25 2.99997 17.25ZM23.25 18H9.74997C9.55106 18 9.3603 18.079 9.21964 18.2197C9.07899 18.3603 8.99997 18.5511 8.99997 18.75V20.25C8.99997 20.4489 9.07899 20.6397 9.21964 20.7803C9.3603 20.921 9.55106 21 9.74997 21H23.25C23.4489 21 23.6397 20.921 23.7803 20.7803C23.921 20.6397 24 20.4489 24 20.25V18.75C24 18.5511 23.921 18.3603 23.7803 18.2197C23.6397 18.079 23.4489 18 23.25 18ZM23.25 3H9.74997C9.55106 3 9.3603 3.07902 9.21964 3.21967C9.07899 3.36032 8.99997 3.55109 8.99997 3.75V5.25C8.99997 5.44891 9.07899 5.63968 9.21964 5.78033C9.3603 5.92098 9.55106 6 9.74997 6H23.25C23.4489 6 23.6397 5.92098 23.7803 5.78033C23.921 5.63968 24 5.44891 24 5.25V3.75C24 3.55109 23.921 3.36032 23.7803 3.21967C23.6397 3.07902 23.4489 3 23.25 3ZM23.25 10.5H9.74997C9.55106 10.5 9.3603 10.579 9.21964 10.7197C9.07899 10.8603 8.99997 11.0511 8.99997 11.25V12.75C8.99997 12.9489 9.07899 13.1397 9.21964 13.2803C9.3603 13.421 9.55106 13.5 9.74997 13.5H23.25C23.4489 13.5 23.6397 13.421 23.7803 13.2803C23.921 13.1397 24 12.9489 24 12.75V11.25C24 11.0511 23.921 10.8603 23.7803 10.7197C23.6397 10.579 23.4489 10.5 23.25 10.5Z" fill="white"/>
</svg>
