<svg width="24" height="24" viewBox="0 0 24 24" fill="none" xmlns="http://www.w3.org/2000/svg">
<path d="M12.0001 4C10.2201 4 8.48001 4.52784 6.99997 5.51677C5.51992 6.50571 4.36637 7.91131 3.68518 9.55585C3.00399 11.2004 2.82576 13.01 3.17303 14.7558C3.5203 16.5016 4.37746 18.1053 5.63614 19.364C6.89481 20.6226 8.49846 21.4798 10.2443 21.8271C11.9901 22.1743 13.7997 21.9961 15.4442 21.3149C17.0888 20.6337 18.4944 19.4802 19.4833 18.0001C20.4723 16.5201 21.0001 14.78 21.0001 13C21.0001 10.6131 20.0519 8.32387 18.3641 6.63604C16.6762 4.94821 14.387 4 12.0001 4ZM12.0001 20C10.6156 20 9.26225 19.5895 8.11111 18.8203C6.95996 18.0511 6.06275 16.9579 5.53294 15.6788C5.00313 14.3997 4.8645 12.9922 5.1346 11.6344C5.4047 10.2765 6.07138 9.02922 7.05035 8.05025C8.02932 7.07129 9.2766 6.4046 10.6345 6.1345C11.9923 5.86441 13.3998 6.00303 14.6789 6.53284C15.958 7.06266 17.0512 7.95986 17.8204 9.11101C18.5896 10.2622 19.0001 11.6155 19.0001 13C19.0001 14.8565 18.2626 16.637 16.9498 17.9497C15.6371 19.2625 13.8566 20 12.0001 20ZM21.1901 3.81C20.01 2.61279 18.6069 1.65817 17.0601 1L16.2801 2.84C17.5872 3.3951 18.7755 4.19631 19.7801 5.2C20.5141 5.9408 21.1433 6.77858 21.6501 7.69L23.4001 6.69C22.7997 5.63273 22.056 4.66355 21.1901 3.81ZM7.7201 2.81L6.9401 1C5.39325 1.65817 3.9902 2.61279 2.8101 3.81C1.94049 4.67891 1.19663 5.66512 0.600098 6.74L2.3501 7.74C2.85461 6.81802 3.48387 5.97003 4.2201 5.22C5.22474 4.21631 6.41297 3.4151 7.7201 2.86V2.81ZM13.0001 8H11.0001V14H16.0001V12H13.0001V8Z" fill="white"/>
</svg>
